<svg aria-roledescription="er" role="graphics-document document" viewBox="0 0 438.8910827636719 832" style="max-width: 100%;" xmlns="http://www.w3.org/2000/svg" width="100%" id="graph-div" height="100%" xmlns:xlink="http://www.w3.org/1999/xlink"><style>@import url("https://cdnjs.cloudflare.com/ajax/libs/font-awesome/6.5.2/css/all.min.css");'</style><style>#graph-div{font-family:"trebuchet ms",verdana,arial,sans-serif;font-size:16px;fill:#333;}#graph-div .error-icon{fill:#552222;}#graph-div .error-text{fill:#552222;stroke:#552222;}#graph-div .edge-thickness-normal{stroke-width:2px;}#graph-div .edge-thickness-thick{stroke-width:3.5px;}#graph-div .edge-pattern-solid{stroke-dasharray:0;}#graph-div .edge-pattern-dashed{stroke-dasharray:3;}#graph-div .edge-pattern-dotted{stroke-dasharray:2;}#graph-div .marker{fill:#333333;stroke:#333333;}#graph-div .marker.cross{stroke:#333333;}#graph-div svg{font-family:"trebuchet ms",verdana,arial,sans-serif;font-size:16px;}#graph-div .entityBox{fill:#ECECFF;stroke:#9370DB;}#graph-div .attributeBoxOdd{fill:#ffffff;stroke:#9370DB;}#graph-div .attributeBoxEven{fill:#f2f2f2;stroke:#9370DB;}#graph-div .relationshipLabelBox{fill:hsl(80, 100%, 96.2745098039%);opacity:0.7;background-color:hsl(80, 100%, 96.2745098039%);}#graph-div .relationshipLabelBox rect{opacity:0.5;}#graph-div .relationshipLine{stroke:#333333;}#graph-div .entityTitleText{text-anchor:middle;font-size:18px;fill:#333;}#graph-div #MD_PARENT_START{fill:#f5f5f5!important;stroke:#333333!important;stroke-width:1;}#graph-div #MD_PARENT_END{fill:#f5f5f5!important;stroke:#333333!important;stroke-width:1;}#graph-div :root{--mermaid-font-family:"trebuchet ms",verdana,arial,sans-serif;}</style><g></g><defs><marker orient="auto" markerHeight="240" markerWidth="190" refY="7" refX="0" id="MD_PARENT_START"><path d="M 18,7 L9,13 L1,7 L9,1 Z"></path></marker></defs><defs><marker orient="auto" markerHeight="28" markerWidth="20" refY="7" refX="19" id="MD_PARENT_END"><path d="M 18,7 L9,13 L1,7 L9,1 Z"></path></marker></defs><defs><marker orient="auto" markerHeight="18" markerWidth="18" refY="9" refX="0" id="ONLY_ONE_START"><path d="M9,0 L9,18 M15,0 L15,18" fill="none" stroke="gray"></path></marker></defs><defs><marker orient="auto" markerHeight="18" markerWidth="18" refY="9" refX="18" id="ONLY_ONE_END"><path d="M3,0 L3,18 M9,0 L9,18" fill="none" stroke="gray"></path></marker></defs><defs><marker orient="auto" markerHeight="18" markerWidth="30" refY="9" refX="0" id="ZERO_OR_ONE_START"><circle r="6" cy="9" cx="21" fill="white" stroke="gray"></circle><path d="M9,0 L9,18" fill="none" stroke="gray"></path></marker></defs><defs><marker orient="auto" markerHeight="18" markerWidth="30" refY="9" refX="30" id="ZERO_OR_ONE_END"><circle r="6" cy="9" cx="9" fill="white" stroke="gray"></circle><path d="M21,0 L21,18" fill="none" stroke="gray"></path></marker></defs><defs><marker orient="auto" markerHeight="36" markerWidth="45" refY="18" refX="18" id="ONE_OR_MORE_START"><path d="M0,18 Q 18,0 36,18 Q 18,36 0,18 M42,9 L42,27" fill="none" stroke="gray"></path></marker></defs><defs><marker orient="auto" markerHeight="36" markerWidth="45" refY="18" refX="27" id="ONE_OR_MORE_END"><path d="M3,9 L3,27 M9,18 Q27,0 45,18 Q27,36 9,18" fill="none" stroke="gray"></path></marker></defs><defs><marker orient="auto" markerHeight="36" markerWidth="57" refY="18" refX="18" id="ZERO_OR_MORE_START"><circle r="6" cy="18" cx="48" fill="white" stroke="gray"></circle><path d="M0,18 Q18,0 36,18 Q18,36 0,18" fill="none" stroke="gray"></path></marker></defs><defs><marker orient="auto" markerHeight="36" markerWidth="57" refY="18" refX="39" id="ZERO_OR_MORE_END"><circle r="6" cy="18" cx="9" fill="white" stroke="gray"></circle><path d="M21,18 Q39,0 57,18 Q39,36 21,18" fill="none" stroke="gray"></path></marker></defs><path style="stroke: gray; fill: none;" marker-start="url(#ONLY_ONE_START)" marker-end="url(#ZERO_OR_MORE_END)" d="M113.41,410L113.41,418.333C113.41,426.667,113.41,443.333,113.41,460C113.41,476.667,113.41,493.333,113.41,501.667L113.41,510" class="er relationshipLine"></path><path style="stroke: gray; fill: none;" marker-start="url(#ZERO_OR_MORE_START)" marker-end="url(#ONLY_ONE_END)" d="M113.41,578L113.41,586.333C113.41,594.667,113.41,611.333,120.298,628C127.186,644.667,140.961,661.333,147.849,669.667L154.737,678" class="er relationshipLine"></path><path style="stroke: gray; fill: none;" marker-start="url(#ZERO_OR_MORE_START)" marker-end="url(#ONLY_ONE_END)" d="M276.788,242L281.793,250.333C286.799,258.667,296.809,275.333,301.815,297.667C306.82,320,306.82,348,306.82,376C306.82,404,306.82,432,306.82,460C306.82,488,306.82,516,306.82,544C306.82,572,306.82,600,299.932,622.333C293.045,644.667,279.269,661.333,272.381,669.667L265.493,678" class="er relationshipLine"></path><path style="stroke: gray; fill: none;" marker-start="url(#ZERO_OR_MORE_START)" marker-end="url(#ZERO_OR_ONE_END)" d="M293.229,70.747L304.895,62.289C316.562,53.831,339.895,36.916,354.479,28.458C369.062,20,374.895,20,380.729,38.5C386.562,57,392.395,94,392.395,131C392.395,168,386.562,205,380.729,223.5C374.895,242,369.062,242,354.479,233.542C339.895,225.084,316.562,208.169,304.895,199.711L293.229,191.253" class="er relationshipLine"></path><path style="stroke: gray; fill: none;" marker-start="url(#ZERO_OR_MORE_START)" marker-end="url(#ONE_OR_MORE_END)" d="M143.443,242L138.437,250.333C133.432,258.667,123.421,275.333,118.416,292C113.41,308.667,113.41,325.333,113.41,333.667L113.41,342" class="er relationshipLine"></path><g transform="translate(147.568359375,678 )" id="entity-TOURNAMENT-840bda58-9cd3-5176-98ca-b57f3e773c84"><rect height="134" width="125.09375" y="0" x="0" class="er entityBox"></rect><text transform="translate(62.546875,12)" style="dominant-baseline: middle; text-anchor: middle; font-size: 12px;" y="0" x="0" id="text-entity-TOURNAMENT-840bda58-9cd3-5176-98ca-b57f3e773c84" class="er entityLabel">TOURNAMENT</text><rect height="22" width="57.5390625" y="24" x="0" class="er attributeBoxOdd"></rect><text transform="translate(5,35)" style="dominant-baseline: middle; font-size: 10.2px;" y="0" x="0" id="text-entity-TOURNAMENT-840bda58-9cd3-5176-98ca-b57f3e773c84-attr-1-type" class="er entityLabel">id</text><rect height="22" width="67.5546875" y="24" x="57.5390625" class="er attributeBoxOdd"></rect><text transform="translate(62.5390625,35)" style="dominant-baseline: middle; font-size: 10.2px;" y="0" x="0" id="text-entity-TOURNAMENT-840bda58-9cd3-5176-98ca-b57f3e773c84-attr-1-name" class="er entityLabel">uuid</text><rect height="22" width="57.5390625" y="46" x="0" class="er attributeBoxEven"></rect><text transform="translate(5,57)" style="dominant-baseline: middle; font-size: 10.2px;" y="0" x="0" id="text-entity-TOURNAMENT-840bda58-9cd3-5176-98ca-b57f3e773c84-attr-2-type" class="er entityLabel">title</text><rect height="22" width="67.5546875" y="46" x="57.5390625" class="er attributeBoxEven"></rect><text transform="translate(62.5390625,57)" style="dominant-baseline: middle; font-size: 10.2px;" y="0" x="0" id="text-entity-TOURNAMENT-840bda58-9cd3-5176-98ca-b57f3e773c84-attr-2-name" class="er entityLabel">text</text><rect height="22" width="57.5390625" y="68" x="0" class="er attributeBoxOdd"></rect><text transform="translate(5,79)" style="dominant-baseline: middle; font-size: 10.2px;" y="0" x="0" id="text-entity-TOURNAMENT-840bda58-9cd3-5176-98ca-b57f3e773c84-attr-3-type" class="er entityLabel">status</text><rect height="22" width="67.5546875" y="68" x="57.5390625" class="er attributeBoxOdd"></rect><text transform="translate(62.5390625,79)" style="dominant-baseline: middle; font-size: 10.2px;" y="0" x="0" id="text-entity-TOURNAMENT-840bda58-9cd3-5176-98ca-b57f3e773c84-attr-3-name" class="er entityLabel">enum</text><rect height="22" width="57.5390625" y="90" x="0" class="er attributeBoxEven"></rect><text transform="translate(5,101)" style="dominant-baseline: middle; font-size: 10.2px;" y="0" x="0" id="text-entity-TOURNAMENT-840bda58-9cd3-5176-98ca-b57f3e773c84-attr-4-type" class="er entityLabel">started_at</text><rect height="22" width="67.5546875" y="90" x="57.5390625" class="er attributeBoxEven"></rect><text transform="translate(62.5390625,101)" style="dominant-baseline: middle; font-size: 10.2px;" y="0" x="0" id="text-entity-TOURNAMENT-840bda58-9cd3-5176-98ca-b57f3e773c84-attr-4-name" class="er entityLabel">timestamptz</text><rect height="22" width="57.5390625" y="112" x="0" class="er attributeBoxOdd"></rect><text transform="translate(5,123)" style="dominant-baseline: middle; font-size: 10.2px;" y="0" x="0" id="text-entity-TOURNAMENT-840bda58-9cd3-5176-98ca-b57f3e773c84-attr-5-type" class="er entityLabel">ended_at</text><rect height="22" width="67.5546875" y="112" x="57.5390625" class="er attributeBoxOdd"></rect><text transform="translate(62.5390625,123)" style="dominant-baseline: middle; font-size: 10.2px;" y="0" x="0" id="text-entity-TOURNAMENT-840bda58-9cd3-5176-98ca-b57f3e773c84-attr-5-name" class="er entityLabel">timestamptz</text></g><g transform="translate(63.41015625,342 )" id="entity-PLAYER-09044be7-efdd-5fb9-97db-80dc92021a88"><rect height="68" width="100" y="0" x="0" class="er entityBox"></rect><text transform="translate(50,12)" style="dominant-baseline: middle; text-anchor: middle; font-size: 12px;" y="0" x="0" id="text-entity-PLAYER-09044be7-efdd-5fb9-97db-80dc92021a88" class="er entityLabel">PLAYER</text><rect height="22" width="62.2265625" y="24" x="0" class="er attributeBoxOdd"></rect><text transform="translate(5,35)" style="dominant-baseline: middle; font-size: 10.2px;" y="0" x="0" id="text-entity-PLAYER-09044be7-efdd-5fb9-97db-80dc92021a88-attr-1-type" class="er entityLabel">id</text><rect height="22" width="37.7734375" y="24" x="62.2265625" class="er attributeBoxOdd"></rect><text transform="translate(67.2265625,35)" style="dominant-baseline: middle; font-size: 10.2px;" y="0" x="0" id="text-entity-PLAYER-09044be7-efdd-5fb9-97db-80dc92021a88-attr-1-name" class="er entityLabel">uuid</text><rect height="22" width="62.2265625" y="46" x="0" class="er attributeBoxEven"></rect><text transform="translate(5,57)" style="dominant-baseline: middle; font-size: 10.2px;" y="0" x="0" id="text-entity-PLAYER-09044be7-efdd-5fb9-97db-80dc92021a88-attr-2-type" class="er entityLabel">username</text><rect height="22" width="37.7734375" y="46" x="62.2265625" class="er attributeBoxEven"></rect><text transform="translate(67.2265625,57)" style="dominant-baseline: middle; font-size: 10.2px;" y="0" x="0" id="text-entity-PLAYER-09044be7-efdd-5fb9-97db-80dc92021a88-attr-2-name" class="er entityLabel">text</text></g><g transform="translate(127.001953125,20 )" id="entity-MATCH-37c1e2bd-c7e7-5fe2-af19-ed7eb880a242"><rect height="222" width="166.2265625" y="0" x="0" class="er entityBox"></rect><text transform="translate(83.11328125,12)" style="dominant-baseline: middle; text-anchor: middle; font-size: 12px;" y="0" x="0" id="text-entity-MATCH-37c1e2bd-c7e7-5fe2-af19-ed7eb880a242" class="er entityLabel">MATCH</text><rect height="22" width="98.671875" y="24" x="0" class="er attributeBoxOdd"></rect><text transform="translate(5,35)" style="dominant-baseline: middle; font-size: 10.2px;" y="0" x="0" id="text-entity-MATCH-37c1e2bd-c7e7-5fe2-af19-ed7eb880a242-attr-1-type" class="er entityLabel">id</text><rect height="22" width="67.5546875" y="24" x="98.671875" class="er attributeBoxOdd"></rect><text transform="translate(103.671875,35)" style="dominant-baseline: middle; font-size: 10.2px;" y="0" x="0" id="text-entity-MATCH-37c1e2bd-c7e7-5fe2-af19-ed7eb880a242-attr-1-name" class="er entityLabel">uuid</text><rect height="22" width="98.671875" y="46" x="0" class="er attributeBoxEven"></rect><text transform="translate(5,57)" style="dominant-baseline: middle; font-size: 10.2px;" y="0" x="0" id="text-entity-MATCH-37c1e2bd-c7e7-5fe2-af19-ed7eb880a242-attr-2-type" class="er entityLabel">tournament_id</text><rect height="22" width="67.5546875" y="46" x="98.671875" class="er attributeBoxEven"></rect><text transform="translate(103.671875,57)" style="dominant-baseline: middle; font-size: 10.2px;" y="0" x="0" id="text-entity-MATCH-37c1e2bd-c7e7-5fe2-af19-ed7eb880a242-attr-2-name" class="er entityLabel">uuid</text><rect height="22" width="98.671875" y="68" x="0" class="er attributeBoxOdd"></rect><text transform="translate(5,79)" style="dominant-baseline: middle; font-size: 10.2px;" y="0" x="0" id="text-entity-MATCH-37c1e2bd-c7e7-5fe2-af19-ed7eb880a242-attr-3-type" class="er entityLabel">parent_match_1_id</text><rect height="22" width="67.5546875" y="68" x="98.671875" class="er attributeBoxOdd"></rect><text transform="translate(103.671875,79)" style="dominant-baseline: middle; font-size: 10.2px;" y="0" x="0" id="text-entity-MATCH-37c1e2bd-c7e7-5fe2-af19-ed7eb880a242-attr-3-name" class="er entityLabel">uuid</text><rect height="22" width="98.671875" y="90" x="0" class="er attributeBoxEven"></rect><text transform="translate(5,101)" style="dominant-baseline: middle; font-size: 10.2px;" y="0" x="0" id="text-entity-MATCH-37c1e2bd-c7e7-5fe2-af19-ed7eb880a242-attr-4-type" class="er entityLabel">parent_match_2_id</text><rect height="22" width="67.5546875" y="90" x="98.671875" class="er attributeBoxEven"></rect><text transform="translate(103.671875,101)" style="dominant-baseline: middle; font-size: 10.2px;" y="0" x="0" id="text-entity-MATCH-37c1e2bd-c7e7-5fe2-af19-ed7eb880a242-attr-4-name" class="er entityLabel">uuid</text><rect height="22" width="98.671875" y="112" x="0" class="er attributeBoxOdd"></rect><text transform="translate(5,123)" style="dominant-baseline: middle; font-size: 10.2px;" y="0" x="0" id="text-entity-MATCH-37c1e2bd-c7e7-5fe2-af19-ed7eb880a242-attr-5-type" class="er entityLabel">due_at</text><rect height="22" width="67.5546875" y="112" x="98.671875" class="er attributeBoxOdd"></rect><text transform="translate(103.671875,123)" style="dominant-baseline: middle; font-size: 10.2px;" y="0" x="0" id="text-entity-MATCH-37c1e2bd-c7e7-5fe2-af19-ed7eb880a242-attr-5-name" class="er entityLabel">timestamptz</text><rect height="22" width="98.671875" y="134" x="0" class="er attributeBoxEven"></rect><text transform="translate(5,145)" style="dominant-baseline: middle; font-size: 10.2px;" y="0" x="0" id="text-entity-MATCH-37c1e2bd-c7e7-5fe2-af19-ed7eb880a242-attr-6-type" class="er entityLabel">opponent_1_id</text><rect height="22" width="67.5546875" y="134" x="98.671875" class="er attributeBoxEven"></rect><text transform="translate(103.671875,145)" style="dominant-baseline: middle; font-size: 10.2px;" y="0" x="0" id="text-entity-MATCH-37c1e2bd-c7e7-5fe2-af19-ed7eb880a242-attr-6-name" class="er entityLabel">uuid</text><rect height="22" width="98.671875" y="156" x="0" class="er attributeBoxOdd"></rect><text transform="translate(5,167)" style="dominant-baseline: middle; font-size: 10.2px;" y="0" x="0" id="text-entity-MATCH-37c1e2bd-c7e7-5fe2-af19-ed7eb880a242-attr-7-type" class="er entityLabel">opponent_1_score</text><rect height="22" width="67.5546875" y="156" x="98.671875" class="er attributeBoxOdd"></rect><text transform="translate(103.671875,167)" style="dominant-baseline: middle; font-size: 10.2px;" y="0" x="0" id="text-entity-MATCH-37c1e2bd-c7e7-5fe2-af19-ed7eb880a242-attr-7-name" class="er entityLabel">integer</text><rect height="22" width="98.671875" y="178" x="0" class="er attributeBoxEven"></rect><text transform="translate(5,189)" style="dominant-baseline: middle; font-size: 10.2px;" y="0" x="0" id="text-entity-MATCH-37c1e2bd-c7e7-5fe2-af19-ed7eb880a242-attr-8-type" class="er entityLabel">opponent_2_id</text><rect height="22" width="67.5546875" y="178" x="98.671875" class="er attributeBoxEven"></rect><text transform="translate(103.671875,189)" style="dominant-baseline: middle; font-size: 10.2px;" y="0" x="0" id="text-entity-MATCH-37c1e2bd-c7e7-5fe2-af19-ed7eb880a242-attr-8-name" class="er entityLabel">uuid</text><rect height="22" width="98.671875" y="200" x="0" class="er attributeBoxOdd"></rect><text transform="translate(5,211)" style="dominant-baseline: middle; font-size: 10.2px;" y="0" x="0" id="text-entity-MATCH-37c1e2bd-c7e7-5fe2-af19-ed7eb880a242-attr-9-type" class="er entityLabel">opponent_2_score</text><rect height="22" width="67.5546875" y="200" x="98.671875" class="er attributeBoxOdd"></rect><text transform="translate(103.671875,211)" style="dominant-baseline: middle; font-size: 10.2px;" y="0" x="0" id="text-entity-MATCH-37c1e2bd-c7e7-5fe2-af19-ed7eb880a242-attr-9-name" class="er entityLabel">integer</text></g><g transform="translate(20,510 )" id="entity-TOURNAMENTPARTICIPATION-b24cb2a4-47c4-5510-8063-7249e25f2bc5"><rect height="68" width="186.8203125" y="0" x="0" class="er entityBox"></rect><text transform="translate(93.41015625,12)" style="dominant-baseline: middle; text-anchor: middle; font-size: 12px;" y="0" x="0" id="text-entity-TOURNAMENTPARTICIPATION-b24cb2a4-47c4-5510-8063-7249e25f2bc5" class="er entityLabel">TOURNAMENT_PARTICIPATION</text><rect height="22" width="117.328125" y="24" x="0" class="er attributeBoxOdd"></rect><text transform="translate(5,35)" style="dominant-baseline: middle; font-size: 10.2px;" y="0" x="0" id="text-entity-TOURNAMENTPARTICIPATION-b24cb2a4-47c4-5510-8063-7249e25f2bc5-attr-1-type" class="er entityLabel">tournament_id</text><rect height="22" width="69.4921875" y="24" x="117.328125" class="er attributeBoxOdd"></rect><text transform="translate(122.328125,35)" style="dominant-baseline: middle; font-size: 10.2px;" y="0" x="0" id="text-entity-TOURNAMENTPARTICIPATION-b24cb2a4-47c4-5510-8063-7249e25f2bc5-attr-1-name" class="er entityLabel">uuid</text><rect height="22" width="117.328125" y="46" x="0" class="er attributeBoxEven"></rect><text transform="translate(5,57)" style="dominant-baseline: middle; font-size: 10.2px;" y="0" x="0" id="text-entity-TOURNAMENTPARTICIPATION-b24cb2a4-47c4-5510-8063-7249e25f2bc5-attr-2-type" class="er entityLabel">participant_id</text><rect height="22" width="69.4921875" y="46" x="117.328125" class="er attributeBoxEven"></rect><text transform="translate(122.328125,57)" style="dominant-baseline: middle; font-size: 10.2px;" y="0" x="0" id="text-entity-TOURNAMENTPARTICIPATION-b24cb2a4-47c4-5510-8063-7249e25f2bc5-attr-2-name" class="er entityLabel">uuid</text></g><rect height="14" width="64.3515625" y="453" x="81.23422241210938" class="er relationshipLabelBox"></rect><text style="text-anchor: middle; dominant-baseline: middle; font-size: 12px;" y="460" x="113.41000366210938" id="rel866" class="er relationshipLabel">participates</text><rect height="14" width="88.375" y="625.5999755859375" x="78.17896270751953" class="er relationshipLabelBox"></rect><text style="text-anchor: middle; dominant-baseline: middle; font-size: 12px;" y="632.5999755859375" x="122.36646270751953" id="rel867" class="er relationshipLabel">has_participants</text><rect height="14" width="58.140625" y="455.4388732910156" x="277.74969482421875" class="er relationshipLabelBox"></rect><text style="text-anchor: middle; dominant-baseline: middle; font-size: 12px;" y="462.4388732910156" x="306.82000732421875" id="rel868" class="er relationshipLabel">belongs_to</text><rect height="14" width="52.9921875" y="124" x="365.8988952636719" class="er relationshipLabelBox"></rect><text style="text-anchor: middle; dominant-baseline: middle; font-size: 12px;" y="131" x="392.3949890136719" id="rel869" class="er relationshipLabel">originates</text><rect height="14" width="43.578125" y="282.32476806640625" x="97.47228240966797" class="er relationshipLabelBox"></rect><text style="text-anchor: middle; dominant-baseline: middle; font-size: 12px;" y="289.32476806640625" x="119.26134490966797" id="rel870" class="er relationshipLabel">plays_in</text></svg>